<svg width="4744" height="1604" xmlns="http://www.w3.org/2000/svg" xmlns:xlink="http://www.w3.org/1999/xlink" xml:space="preserve" overflow="hidden"><defs><clipPath id="clip0"><rect x="45" y="545" width="4744" height="1604"/></clipPath><clipPath id="clip1"><rect x="49" y="730" width="980" height="980"/></clipPath><clipPath id="clip2"><rect x="49" y="730" width="980" height="980"/></clipPath><clipPath id="clip3"><rect x="49" y="730" width="980" height="980"/></clipPath></defs><g clip-path="url(#clip0)" transform="translate(-45 -545)"><g clip-path="url(#clip1)"><g clip-path="url(#clip2)"><g clip-path="url(#clip3)"><path d="M121.737 1374.81C115.047 1312.12 107.614 1186.26 105.384 1104.99 103.154 1023.72 106.127 987.047 120.251 959.048 134.374 931.049 159.646 911.723 255.288 895.618 350.93 879.513 516.934 866.629 630.91 862.417 744.886 858.205 806.828 862.665 844.737 899.336 882.646 936.008 896.521 1004.89 901.971 1129.52 907.422 1254.15 904.449 1434.52 896.273 1527.93 888.096 1621.34 874.717 1627.78 803.605 1631.25 732.494 1634.72 603.655 1635.22 506.032 1611.93 408.409 1588.64 342.008 1541.56 303.107 1485.07 264.206 1428.58 252.809 1362.67 253.552 1307.17 254.295 1251.67 267.179 1206.57 303.602 1172.63 340.026 1138.68 399.986 1115.89 435.665 1103.99 471.345 1092.1 482.742 1091.11 493.396 1096.07 504.051 1101.02 513.961 1111.92 517.677 1123.07 521.393 1134.22 518.915 1145.62 504.545 1158.75 490.174 1171.88 463.911 1186.75 441.115 1197.9 418.32 1209.05 398.995 1216.48 385.119 1232.34 371.243 1248.2 362.819 1272.48 365.297 1311.13 367.775 1349.79 381.155 1402.81 407.915 1440.72 434.675 1478.63 474.814 1501.42 541.217 1513.31 607.621 1525.21 700.286 1526.2 751.822 1523.72 803.358 1521.24 813.765 1515.3 813.021 1420.65 812.278 1326 800.385 1142.65 778.333 1047.5 756.282 952.358 724.072 945.421 631.899 949.633 539.726 953.845 387.597 969.207 302.115 985.56 216.633 1001.91 197.803 1019.26 181.945 1094.58 166.088 1169.91 153.204 1303.2 143.789 1370.1 134.374 1437 128.428 1437.5 121.737 1374.81Z" fill="#D6D906" fill-rule="nonzero" fill-opacity="1"/><path d="M514.812 222.47 400.851 288.265 286.89 354.061 286.89 222.47 286.89 90.8799 400.851 156.675Z" fill="#000BB4" fill-rule="nonzero" fill-opacity="1" transform="matrix(1.1547 0 0 1 0.613989 693.522)"/><path d="M715.314 1190.22 978.495 1190.22 978.495 1453.4 715.314 1453.4Z" fill="#C40000" fill-rule="nonzero" fill-opacity="1"/><path d="M648.711 1018.72C652.29 1024.11 655.868 1029.51 657.156 1033.8 658.444 1038.1 657.443 1041.3 651.112 1048.61 644.781 1055.92 633.121 1067.33 624.553 1081.74 615.984 1096.15 610.507 1113.56 603.067 1124.16 595.627 1134.76 586.224 1138.56 577.004 1139.92 567.784 1141.27 558.747 1140.18 550.422 1139.35 542.096 1138.51 534.482 1137.92 524.859 1142.78 515.236 1147.63 503.605 1157.92 497.408 1162.62 491.21 1167.32 490.446 1166.43 489.878 1165.77 489.311 1165.11 488.941 1164.68 485.767 1160.4 482.592 1156.11 476.614 1147.98 470.634 1139.84M648.717 1018.73C645.022 1013.41 641.328 1008.1 637.808 1005.32 634.288 1002.54 630.942 1002.29 621.816 1005.48 612.69 1008.68 597.785 1015.31 581.23 1017.97 564.676 1020.62 546.474 1019.3 533.876 1022.31 521.278 1025.32 514.283 1032.66 509.626 1040.73 504.97 1048.8 502.651 1057.61 500.361 1065.65 498.071 1073.7 495.81 1081 487.752 1088.15 479.695 1095.31 465.841 1102.33 459.187 1106.36 452.533 1110.39 453.08 1111.43 453.485 1112.2 453.891 1112.97 454.156 1113.47 456.968 1118 459.781 1122.53 465.141 1131.09 470.502 1139.65" stroke="#D6D906" stroke-width="1.10041" stroke-linecap="butt" stroke-linejoin="miter" stroke-miterlimit="4" stroke-opacity="1" fill="#D6D906" fill-rule="nonzero" fill-opacity="1"/><path d="M499.549 1101.91 642.89 1019.15 650.333 1032.05 506.992 1114.8Z" stroke="#D6D906" stroke-width="1.17205" stroke-linecap="butt" stroke-linejoin="miter" stroke-miterlimit="4" stroke-opacity="1" fill="#D6D906" fill-rule="nonzero" fill-opacity="1"/><path d="M619.296 1069.33C619.296 1073.02 616.094 1076.02 612.145 1076.02 608.196 1076.02 604.994 1073.02 604.994 1069.33 604.994 1065.64 608.196 1062.64 612.145 1062.64 616.094 1062.64 619.296 1065.64 619.296 1069.33Z" stroke="#000000" stroke-width="1.16055" stroke-linecap="butt" stroke-linejoin="miter" stroke-miterlimit="4" stroke-opacity="1" fill="#068ED9" fill-rule="nonzero" fill-opacity="1"/><path d="M599.143 1031.31C599.143 1035 595.942 1038 591.992 1038 588.043 1038 584.842 1035 584.842 1031.31 584.842 1027.62 588.043 1024.62 591.992 1024.62 595.942 1024.62 599.143 1027.62 599.143 1031.31Z" stroke="#000000" stroke-width="1.16055" stroke-linecap="butt" stroke-linejoin="miter" stroke-miterlimit="4" stroke-opacity="1" fill="#068ED9" fill-rule="nonzero" fill-opacity="1"/><path d="M636.697 1013.59C637.601 1015.15 638.007 1016.61 637.604 1016.85 637.201 1017.08 636.141 1016 635.237 1014.43 634.333 1012.87 633.927 1011.41 634.33 1011.18 634.733 1010.94 635.793 1012.02 636.697 1013.59Z" stroke="#000000" stroke-width="0.782634" stroke-linecap="butt" stroke-linejoin="miter" stroke-miterlimit="4" stroke-opacity="1" fill="#000000" fill-rule="nonzero" fill-opacity="1"/><path d="M646.739 1030.08C647.643 1031.65 648.049 1033.11 647.646 1033.34 647.243 1033.57 646.183 1032.49 645.279 1030.92 644.375 1029.36 643.969 1027.9 644.372 1027.67 644.776 1027.44 645.835 1028.52 646.739 1030.08Z" stroke="#000000" stroke-width="0.782634" stroke-linecap="butt" stroke-linejoin="miter" stroke-miterlimit="4" stroke-opacity="1" fill="#000000" fill-rule="nonzero" fill-opacity="1"/><path d="M651.138 1021.32C661.526 1015.7 671.913 1010.08 680.725 1006.81 689.538 1003.53 696.775 1002.59 700.421 1002.1 704.068 1001.6 704.124 1001.55 700.868 1000.73 697.612 999.908 691.042 998.321 687.715 997.473 684.387 996.624 684.304 996.513 685.654 993.881 687.003 991.25 689.787 986.1 691.083 983.497 692.378 980.894 692.183 980.838 689.663 982.954 687.143 985.069 682.299 989.357 674.726 994.952 667.154 1000.55 656.853 1007.45 646.552 1014.36" stroke="#000000" stroke-width="1.16055" stroke-linecap="butt" stroke-linejoin="miter" stroke-miterlimit="4" stroke-opacity="1" fill="#D21E00" fill-rule="nonzero" fill-opacity="1"/></g></g></g><text fill="#D6D904" fill-opacity="1" font-family="Helvetica,Helvetica_MSFontService,sans-serif" font-style="normal" font-variant="normal" font-weight="400" font-stretch="normal" font-size="761" text-anchor="start" direction="ltr" writing-mode="lr-tb" unicode-bidi="normal" text-decoration="none" transform="matrix(1 0 0 1 990.541 1479)">Py<tspan fill="#3274A4" fill-opacity="1" font-family="Helvetica,Helvetica_MSFontService,sans-serif" font-style="normal" font-variant="normal" font-weight="400" font-stretch="normal" font-size="761" text-anchor="start" direction="ltr" writing-mode="lr-tb" unicode-bidi="normal" text-decoration="none" x="888.021" y="0">Simlink</tspan></text></g></svg>