<?xml version="1.0" encoding="UTF-8" standalone="no"?>
<!-- Created with Inkscape (http://www.inkscape.org/) -->

<svg
   width="255mm"
   height="255mm"
   viewBox="0 0 255 255"
   version="1.1"
   id="svg5"
   xml:space="preserve"
   inkscape:version="1.2.1 (9c6d41e, 2022-07-14)"
   sodipodi:docname="logo.svg"
   xmlns:inkscape="http://www.inkscape.org/namespaces/inkscape"
   xmlns:sodipodi="http://sodipodi.sourceforge.net/DTD/sodipodi-0.dtd"
   xmlns="http://www.w3.org/2000/svg"
   xmlns:svg="http://www.w3.org/2000/svg"><sodipodi:namedview
     id="namedview7"
     pagecolor="#ffffff"
     bordercolor="#000000"
     borderopacity="0.25"
     inkscape:showpageshadow="2"
     inkscape:pageopacity="0.0"
     inkscape:pagecheckerboard="0"
     inkscape:deskcolor="#d1d1d1"
     inkscape:document-units="mm"
     showgrid="false"
     inkscape:zoom="0.59668888"
     inkscape:cx="240.49384"
     inkscape:cy="491.88113"
     inkscape:window-width="1728"
     inkscape:window-height="1051"
     inkscape:window-x="0"
     inkscape:window-y="38"
     inkscape:window-maximized="1"
     inkscape:current-layer="layer1" /><defs
     id="defs2"><inkscape:path-effect
       effect="bspline"
       id="path-effect12114"
       is_visible="true"
       lpeversion="1"
       weight="33.333333"
       steps="2"
       helper_size="0"
       apply_no_weight="true"
       apply_with_weight="true"
       only_selected="false" /><inkscape:path-effect
       effect="mirror_symmetry"
       start_point="107,108"
       end_point="139.30961,86.051659"
       center_point="123.1548,97.02583"
       id="path-effect6318"
       is_visible="true"
       lpeversion="1.2"
       lpesatellites=""
       mode="free"
       discard_orig_path="false"
       fuse_paths="false"
       oposite_fuse="false"
       split_items="false"
       split_open="false"
       link_styles="false" /><inkscape:path-effect
       effect="bspline"
       id="path-effect6267"
       is_visible="true"
       lpeversion="1"
       weight="33.333333"
       steps="2"
       helper_size="0"
       apply_no_weight="true"
       apply_with_weight="true"
       only_selected="false" /><inkscape:path-effect
       effect="bspline"
       id="path-effect1074"
       is_visible="true"
       lpeversion="1"
       weight="33.333333"
       steps="2"
       helper_size="0"
       apply_no_weight="true"
       apply_with_weight="true"
       only_selected="false" /><inkscape:path-effect
       effect="spiro"
       id="path-effect1070"
       is_visible="true"
       lpeversion="1" /><filter
       style="color-interpolation-filters:sRGB;"
       inkscape:label="Fast Crop"
       id="filter5104"
       x="0"
       y="0"
       width="1"
       height="1"
       inkscape:auto-region="false"
       inkscape:menu="Fill and Transparency"
       inkscape:menu-tooltip="Does not filter but adds a filter region"><feColorMatrix
         type="luminanceToAlpha"
         result="colormatrix1"
         id="feColorMatrix5084" /><feFlood
         flood-opacity="1"
         flood-color="rgb(0,0,0)"
         result="flood1"
         id="feFlood5086" /><feComposite
         in2="colormatrix1"
         operator="out"
         result="composite1"
         id="feComposite5088" /><feFlood
         flood-opacity="1"
         flood-color="rgb(255,255,255)"
         result="flood2"
         id="feFlood5090" /><feComposite
         in2="colormatrix1"
         result="composite2"
         operator="in"
         id="feComposite5092" /><feComposite
         in="composite2"
         in2="composite1"
         k2="1"
         k3="1"
         operator="arithmetic"
         result="composite3"
         id="feComposite5094" /><feColorMatrix
         in="composite3"
         type="matrix"
         values="2 -1 0 0 0 0 2 -1 0 0 -1 0 2 0 0 0 0 0 1 0 "
         result="colormatrix2"
         id="feColorMatrix5096" /><feComposite
         in="colormatrix2"
         in2="composite3"
         operator="arithmetic"
         k2="0"
         result="composite4"
         id="feComposite5098" /><feBlend
         in="composite4"
         in2="composite3"
         mode="normal"
         result="blend"
         id="feBlend5100" /><feComposite
         in2="SourceGraphic"
         operator="in"
         id="feComposite5102"
         result="fbSourceGraphic" /><feColorMatrix
         result="fbSourceGraphicAlpha"
         in="fbSourceGraphic"
         values="0 0 0 -1 0 0 0 0 -1 0 0 0 0 -1 0 0 0 0 1 0"
         id="feColorMatrix5469" /><feColorMatrix
         id="feColorMatrix5471"
         type="saturate"
         values="1"
         in="fbSourceGraphic" /></filter></defs><g
     inkscape:label="Layer 1"
     inkscape:groupmode="layer"
     id="layer1"><g
       id="g12126"
       transform="matrix(1.1425111,0,0,1.1425111,-2.0310915,-23.915546)"><path
         style="fill:#d6d906;fill-opacity:1;stroke-width:0.264583"
         d="m 18.132496,167.93636 c -1.525264,-14.2911 -3.219878,-42.98656 -3.728273,-61.51444 -0.508396,-18.527877 0.169436,-26.887805 3.389289,-33.27103 3.219852,-6.383225 8.981425,-10.789134 30.785936,-14.460821 21.804511,-3.671687 59.650132,-6.608958 85.634372,-7.569209 25.98424,-0.960251 40.10574,0.0565 48.74819,8.416891 8.64244,8.360394 11.80566,24.063501 13.04834,52.476909 1.24268,28.41342 0.56484,69.53523 -1.29921,90.83073 -1.86404,21.2955 -4.91428,22.76414 -21.12631,23.55499 -16.21202,0.79084 -45.58474,0.90382 -67.8408,-4.40597 -22.256058,-5.30979 -37.394306,-16.04213 -46.262936,-28.9213 -8.868629,-12.87917 -11.466985,-27.90445 -11.297545,-40.55774 0.169441,-12.65328 3.106713,-22.93373 11.410553,-30.67263 8.30384,-7.7389 21.973452,-12.93562 30.107672,-15.64698 8.134221,-2.71137 10.732576,-2.93731 13.161546,-1.8074 2.42898,1.12992 4.68842,3.6153 5.53557,6.15721 0.84716,2.5419 0.2823,5.14026 -2.99395,8.13399 -3.27625,2.99373 -9.263765,6.38288 -14.460597,8.92482 -5.196833,2.54194 -9.60274,4.23652 -12.766135,7.85185 -3.163395,3.61534 -5.083921,9.15097 -4.518953,17.96316 0.564967,8.81219 3.615213,20.9002 9.716031,29.54271 6.100818,8.64251 15.251549,13.83922 30.390284,16.55052 15.13874,2.7113 36.2645,2.93724 48.01376,2.37233 11.74925,-0.5649 14.12167,-1.92057 13.95215,-23.49891 -0.16953,-21.57833 -2.88085,-63.37797 -7.90813,-85.069151 -5.02729,-21.691178 -12.37047,-23.272785 -33.38406,-22.312514 -21.0136,0.96027 -55.695999,4.462403 -75.184213,8.190599 -19.488214,3.728197 -23.781151,7.682217 -27.396373,24.854726 -3.615222,17.17251 -6.552494,47.56198 -8.698886,62.81338 -2.146393,15.2514 -3.502058,15.36437 -5.027322,1.07328 z"
         id="path1072"
         inkscape:path-effect="#path-effect1074"
         inkscape:original-d="M 18.301829,182.34044 C 16.60748,153.64525 14.912866,124.94979 13.217988,96.254063 13.896111,87.894066 14.573943,79.534138 15.251524,71.173778 21.013591,66.767961 26.775164,62.362053 32.536585,57.95579 70.383981,55.018667 108.2296,52.081395 146.07571,49.1438 c 14.12233,1.017053 28.24383,2.033802 42.36534,3.050305 3.16361,15.703999 6.32682,31.407107 9.48984,47.110263 -0.67759,41.123712 -1.35543,82.245522 -2.03354,123.367882 -3.0501,1.46896 -6.10034,2.9376 -9.15091,4.406 -29.37363,0.11324 -58.74635,0.22621 -88.119919,0.33892 -15.138587,-10.7325 -30.276834,-21.46484 -45.415649,-32.19766 -2.598195,-15.02561 -5.196549,-30.05089 -7.795223,-45.07673 2.937656,-10.2806 5.874928,-20.56105 8.811993,-30.84197 13.670423,-5.19665 27.340033,-10.39337 41.009654,-15.59045 2.598724,-0.22568 5.197074,-0.45163 7.795224,-0.67784 2.25979,2.48575 4.51923,4.97113 6.77845,7.4563 -0.56461,2.59872 -1.12948,5.19708 -1.69461,7.79522 -5.98749,3.38956 -11.975006,6.77872 -17.962906,10.16768 -4.40582,1.69492 -8.811728,3.3895 -13.217987,5.08385 -1.920338,5.53611 -3.840861,11.07174 -5.761689,16.60721 3.050633,12.08875 6.100877,24.17676 9.150916,36.26474 9.151361,5.19718 18.302092,10.39389 27.452746,15.59044 21.12687,0.22622 42.25263,0.45217 63.37855,0.67785 2.37277,-1.35545 4.74519,-2.71112 7.11738,-4.06707 -2.71117,-41.80105 -5.4225,-83.60069 -8.13414,-125.401424 -7.34321,-1.581407 -14.68639,-3.163015 -22.02999,-4.744919 -34.68352,3.502536 -69.36592,7.004669 -104.049281,10.506607 -4.292844,3.954441 -8.58578,7.908462 -12.879065,11.862294 -2.937126,30.390942 -5.874397,60.780412 -8.811992,91.170222 -1.355453,0.11324 -2.711118,0.22621 -4.067073,0.33892 z" /><path
         sodipodi:type="star"
         style="fill:#000bb4;fill-opacity:1;stroke-width:0.264583"
         id="path280"
         inkscape:flatsided="false"
         sodipodi:sides="3"
         sodipodi:cx="74.250801"
         sodipodi:cy="45.522816"
         sodipodi:r1="31.092142"
         sodipodi:r2="15.54607"
         sodipodi:arg1="0"
         sodipodi:arg2="1.0471976"
         inkscape:rounded="0"
         inkscape:randomized="0"
         d="M 105.34294,45.522816 82.023835,58.986108 58.70473,72.449401 l 1e-6,-26.926586 -1e-6,-26.926584 23.319107,13.463293 z"
         inkscape:transform-center-x="-9.9999988"
         transform="matrix(1.2864987,0,0,1.1141405,-9.4812502,12.616054)"
         inkscape:transform-center-y="-2.0202492e-06" /><rect
         style="fill:#c40000;fill-opacity:1;stroke-width:0.312336"
         id="rect282"
         width="60"
         height="60"
         x="153.45627"
         y="125.85355" /><path
         style="fill:#d6d906;fill-opacity:1;stroke:#d6d906;stroke-width:0.250872;stroke-opacity:1"
         d="m 138.27209,86.755181 c 0.81593,1.229483 1.63165,2.458652 1.92526,3.438294 0.29361,0.979642 0.0653,1.709758 -1.37792,3.375644 -1.44328,1.665885 -4.10153,4.267579 -6.05506,7.553041 -1.95353,3.28546 -3.20211,7.2542 -4.8983,9.6714 -1.69618,2.4172 -3.83993,3.28278 -5.9419,3.59165 -2.10197,0.30887 -4.16213,0.0609 -6.06021,-0.12988 -1.89807,-0.19077 -3.63395,-0.3243 -5.82782,0.78208 -2.19388,1.10638 -4.84543,3.45272 -6.25828,4.52448 -1.41285,1.07176 -1.58722,0.86865 -1.71656,0.71793 -0.12933,-0.15073 -0.21365,-0.24911 -0.93735,-1.22572 -0.72369,-0.97661 -2.086688,-2.83142 -3.44993,-4.68655 m 40.59926,-27.610615 c -0.84231,-1.211564 -1.6844,-2.422819 -2.48691,-3.056756 -0.80252,-0.633938 -1.56537,-0.690775 -3.64586,0.03708 -2.08049,0.727851 -5.47864,2.240352 -9.25277,2.845763 -3.77413,0.605411 -7.92368,0.303696 -10.79581,0.989812 -2.87213,0.686115 -4.46675,2.360058 -5.52844,4.200305 -1.06168,1.840246 -1.5903,3.846816 -2.11237,5.681623 -0.52208,1.834807 -1.03759,3.497742 -2.87454,5.129542 -1.836948,1.63181 -4.995246,3.23218 -6.512207,4.15067 -1.516962,0.9185 -1.392399,1.15545 -1.299939,1.33123 0.09246,0.17577 0.152846,0.29041 0.794063,1.32305 0.641217,1.03264 1.863251,2.9832 3.085505,4.93411"
         id="path6265"
         inkscape:path-effect="#path-effect6267;#path-effect6318"
         inkscape:original-d="m 138.27209,86.755181 c 0.81599,1.229442 1.63171,2.458611 2.44721,3.687581 -0.22802,0.730455 -0.45629,1.460569 -0.68484,2.190496 -2.65806,2.601997 -5.31631,5.203693 -7.97492,7.805242 -1.2484,3.96922 -2.49698,7.93796 -3.74589,11.90668 -2.14364,0.86588 -4.28739,1.73146 -6.43153,2.59685 -2.05995,-0.24773 -4.12011,-0.49572 -6.1806,-0.74396 -1.73565,-0.13328 -3.47153,-0.26681 -5.20772,-0.4006 -2.6513,2.34659 -5.30284,4.69294 -7.95465,7.03901 -0.17411,-0.20285 -0.34849,-0.40596 -0.52313,-0.60933 -0.084,-0.0981 -0.16835,-0.19646 -0.25293,-0.29509 -1.36278,-1.85461 -2.725781,-3.70941 -4.08907,-5.56451"
         sodipodi:nodetypes="cccccccccccc"
         class="UnoptimicedTransforms" /><rect
         style="fill:#d6d906;fill-opacity:1;stroke:#d6d906;stroke-width:0.267204;stroke-opacity:1"
         id="rect8094"
         width="37.734482"
         height="3.3937709"
         x="37.436474"
         y="143.69011"
         ry="0"
         transform="rotate(-30)" /><ellipse
         style="fill:#068ed9;fill-opacity:1;stroke:#000000;stroke-width:0.264583;stroke-opacity:1"
         id="path8148"
         cx="129.93573"
         cy="98.292831"
         rx="1.6302722"
         ry="1.5250933" /><ellipse
         style="fill:#068ed9;fill-opacity:1;stroke:#000000;stroke-width:0.264583;stroke-opacity:1"
         id="path8148-1"
         cx="125.34132"
         cy="89.625137"
         rx="1.6302722"
         ry="1.5250933" /><ellipse
         style="fill:#000000;fill-opacity:1;stroke:#000000;stroke-width:0.178425;stroke-opacity:1"
         id="path11616"
         cx="74.390327"
         cy="141.88538"
         rx="0.19212346"
         ry="0.74629217"
         transform="rotate(-30)" /><ellipse
         style="fill:#000000;fill-opacity:1;stroke:#000000;stroke-width:0.178425;stroke-opacity:1"
         id="path11616-8"
         cx="74.493088"
         cy="146.28632"
         rx="0.19212346"
         ry="0.74629217"
         transform="rotate(-30)" /><path
         style="fill:#d21e00;fill-opacity:1;stroke:#000000;stroke-width:0.264583;stroke-opacity:1"
         d="m 138.82529,87.348125 c 2.3682,-1.281157 4.7363,-2.562261 6.74539,-3.309565 2.00909,-0.747303 3.65896,-0.960816 4.49027,-1.073643 0.83131,-0.112828 0.84421,-0.124966 0.10184,-0.311874 -0.74236,-0.186908 -2.24021,-0.548677 -2.99873,-0.742161 -0.75851,-0.193485 -0.77752,-0.218845 -0.46982,-0.818745 0.3077,-0.5999 0.94238,-1.774066 1.23768,-2.367513 0.2953,-0.593448 0.2509,-0.606132 -0.32366,-0.123805 -0.57456,0.482328 -1.67891,1.459741 -3.40528,2.735482 -1.72637,1.275741 -4.0747,2.849757 -6.42314,4.423843"
         id="path12112"
         inkscape:path-effect="#path-effect12114"
         inkscape:original-d="m 138.82529,87.348125 c 2.36837,-1.28084 4.73647,-2.561947 7.10431,-3.843316 1.65021,-0.21326 3.30008,-0.426773 4.94973,-0.640554 0.0132,-0.01188 0.0261,-0.02402 0.0387,-0.03641 -1.49765,-0.361521 -2.9955,-0.723291 -4.49365,-1.085331 -0.0188,-0.02514 -0.0378,-0.05051 -0.0571,-0.07616 0.63497,-1.173948 1.26966,-2.348111 1.90409,-3.522565 -0.0442,-0.01243 -0.0886,-0.02511 -0.13329,-0.03808 -1.10413,0.977717 -2.20848,1.955128 -3.31311,2.932295 -2.34816,1.574342 -4.69649,3.148359 -7.04513,4.72214" /></g></g></svg>
