<?xml version="1.0" encoding="UTF-8" standalone="no"?>
<svg
   width="4230"
   height="870"
   xml:space="preserve"
   overflow="hidden"
   version="1.1"
   id="svg144"
   sodipodi:docname="banner.svg"
   inkscape:version="1.2 (1:1.2.1+202207142221+cd75a1ee6d)"
   xmlns:inkscape="http://www.inkscape.org/namespaces/inkscape"
   xmlns:sodipodi="http://sodipodi.sourceforge.net/DTD/sodipodi-0.dtd"
   xmlns="http://www.w3.org/2000/svg"
   xmlns:svg="http://www.w3.org/2000/svg"><sodipodi:namedview
     id="namedview146"
     pagecolor="#ffffff"
     bordercolor="#666666"
     borderopacity="1.0"
     inkscape:showpageshadow="2"
     inkscape:pageopacity="0.0"
     inkscape:pagecheckerboard="0"
     inkscape:deskcolor="#d1d1d1"
     showgrid="false"
     inkscape:zoom="0.27613828"
     inkscape:cx="2372"
     inkscape:cy="552.25954"
     inkscape:window-width="1848"
     inkscape:window-height="1016"
     inkscape:window-x="72"
     inkscape:window-y="27"
     inkscape:window-maximized="1"
     inkscape:current-layer="svg144" /><defs
     id="defs110"><clipPath
       id="clip0"><rect
         x="45"
         y="545"
         width="4744"
         height="1604"
         id="rect98" /></clipPath><clipPath
       id="clip1"><rect
         x="49"
         y="730"
         width="980"
         height="980"
         id="rect101" /></clipPath><clipPath
       id="clip2"><rect
         x="49"
         y="730"
         width="980"
         height="980"
         id="rect104" /></clipPath><clipPath
       id="clip3"><rect
         x="49"
         y="730"
         width="980"
         height="980"
         id="rect107" /></clipPath></defs><g
     clip-path="url(#clip0)"
     transform="translate(-99.860811,-780.07832)"
     id="g142"><g
       clip-path="url(#clip1)"
       id="g136"><g
         clip-path="url(#clip2)"
         id="g134"><g
           clip-path="url(#clip3)"
           id="g132"><path
             d="m 121.737,1374.81 c -6.69,-62.69 -14.123,-188.55 -16.353,-269.82 -2.23,-81.27 0.743,-117.943 14.867,-145.942 14.123,-27.999 39.395,-47.325 135.037,-63.43 95.642,-16.105 261.646,-28.989 375.622,-33.201 113.976,-4.212 175.918,0.248 213.827,36.919 37.909,36.672 51.784,105.554 57.234,230.184 5.451,124.63 2.478,305 -5.698,398.41 -8.177,93.41 -21.556,99.85 -92.668,103.32 -71.111,3.47 -199.95,3.97 -297.573,-19.32 -97.623,-23.29 -164.024,-70.37 -202.925,-126.86 -38.901,-56.49 -50.298,-122.4 -49.555,-177.9 0.743,-55.5 13.627,-100.6 50.05,-134.54 36.424,-33.95 96.384,-56.74 132.063,-68.64 35.68,-11.89 47.077,-12.88 57.731,-7.92 10.655,4.95 20.565,15.85 24.281,27 3.716,11.15 1.238,22.55 -13.132,35.68 -14.371,13.13 -40.634,28 -63.43,39.15 -22.795,11.15 -42.12,18.58 -55.996,34.44 -13.876,15.86 -22.3,40.14 -19.822,78.79 2.478,38.66 15.858,91.68 42.618,129.59 26.76,37.91 66.899,60.7 133.302,72.59 66.404,11.9 159.069,12.89 210.605,10.41 51.536,-2.48 61.943,-8.42 61.199,-103.07 -0.743,-94.65 -12.636,-278 -34.688,-373.15 -22.051,-95.142 -54.261,-102.079 -146.434,-97.867 -92.173,4.212 -244.302,19.574 -329.784,35.927 -85.482,16.35 -104.312,33.7 -120.17,109.02 -15.857,75.33 -28.741,208.62 -38.156,275.52 -9.415,66.9 -15.361,67.4 -22.052,4.71 z"
             fill="#d6d906"
             fill-rule="nonzero"
             fill-opacity="1"
             id="path112" /><path
             d="M 514.812,222.47 400.851,288.265 286.89,354.061 V 222.47 90.8799 l 113.961,65.7951 z"
             fill="#000bb4"
             fill-rule="nonzero"
             fill-opacity="1"
             transform="matrix(1.1547,0,0,1,0.613989,693.522)"
             id="path114" /><path
             d="M 715.314,1190.22 H 978.495 V 1453.4 H 715.314 Z"
             fill="#c40000"
             fill-rule="nonzero"
             fill-opacity="1"
             id="path116" /><path
             d="m 648.711,1018.72 c 3.579,5.39 7.157,10.79 8.445,15.08 1.288,4.3 0.287,7.5 -6.044,14.81 -6.331,7.31 -17.991,18.72 -26.559,33.13 -8.569,14.41 -14.046,31.82 -21.486,42.42 -7.44,10.6 -16.843,14.4 -26.063,15.76 -9.22,1.35 -18.257,0.26 -26.582,-0.57 -8.326,-0.84 -15.94,-1.43 -25.563,3.43 -9.623,4.85 -21.254,15.14 -27.451,19.84 -6.198,4.7 -6.962,3.81 -7.53,3.15 -0.567,-0.66 -0.937,-1.09 -4.111,-5.37 -3.175,-4.29 -9.153,-12.42 -15.133,-20.56 m 178.083,-121.11 c -3.695,-5.32 -7.389,-10.63 -10.909,-13.41 -3.52,-2.78 -6.866,-3.03 -15.992,0.16 -9.126,3.2 -24.031,9.83 -40.586,12.49 -16.554,2.65 -34.756,1.33 -47.354,4.34 -12.598,3.01 -19.593,10.35 -24.25,18.42 -4.656,8.07 -6.975,16.88 -9.265,24.92 -2.29,8.05 -4.551,15.35 -12.609,22.5 -8.057,7.16 -21.911,14.18 -28.565,18.21 -6.654,4.03 -6.107,5.07 -5.702,5.84 0.406,0.77 0.671,1.27 3.483,5.8 2.813,4.53 8.173,13.09 13.534,21.65"
             stroke="#d6d906"
             stroke-width="1.10041"
             stroke-linecap="butt"
             stroke-linejoin="miter"
             stroke-miterlimit="4"
             stroke-opacity="1"
             fill="#d6d906"
             fill-rule="nonzero"
             fill-opacity="1"
             id="path118" /><path
             d="m 499.549,1101.91 143.341,-82.76 7.443,12.9 -143.341,82.75 z"
             stroke="#d6d906"
             stroke-width="1.17205"
             stroke-linecap="butt"
             stroke-linejoin="miter"
             stroke-miterlimit="4"
             stroke-opacity="1"
             fill="#d6d906"
             fill-rule="nonzero"
             fill-opacity="1"
             id="path120" /><path
             d="m 619.296,1069.33 c 0,3.69 -3.202,6.69 -7.151,6.69 -3.949,0 -7.151,-3 -7.151,-6.69 0,-3.69 3.202,-6.69 7.151,-6.69 3.949,0 7.151,3 7.151,6.69 z"
             stroke="#000000"
             stroke-width="1.16055"
             stroke-linecap="butt"
             stroke-linejoin="miter"
             stroke-miterlimit="4"
             stroke-opacity="1"
             fill="#068ed9"
             fill-rule="nonzero"
             fill-opacity="1"
             id="path122" /><path
             d="m 599.143,1031.31 c 0,3.69 -3.201,6.69 -7.151,6.69 -3.949,0 -7.15,-3 -7.15,-6.69 0,-3.69 3.201,-6.69 7.15,-6.69 3.95,0 7.151,3 7.151,6.69 z"
             stroke="#000000"
             stroke-width="1.16055"
             stroke-linecap="butt"
             stroke-linejoin="miter"
             stroke-miterlimit="4"
             stroke-opacity="1"
             fill="#068ed9"
             fill-rule="nonzero"
             fill-opacity="1"
             id="path124" /><path
             d="m 636.697,1013.59 c 0.904,1.56 1.31,3.02 0.907,3.26 -0.403,0.23 -1.463,-0.85 -2.367,-2.42 -0.904,-1.56 -1.31,-3.02 -0.907,-3.25 0.403,-0.24 1.463,0.84 2.367,2.41 z"
             stroke="#000000"
             stroke-width="0.782634"
             stroke-linecap="butt"
             stroke-linejoin="miter"
             stroke-miterlimit="4"
             stroke-opacity="1"
             fill="#000000"
             fill-rule="nonzero"
             fill-opacity="1"
             id="path126" /><path
             d="m 646.739,1030.08 c 0.904,1.57 1.31,3.03 0.907,3.26 -0.403,0.23 -1.463,-0.85 -2.367,-2.42 -0.904,-1.56 -1.31,-3.02 -0.907,-3.25 0.404,-0.23 1.463,0.85 2.367,2.41 z"
             stroke="#000000"
             stroke-width="0.782634"
             stroke-linecap="butt"
             stroke-linejoin="miter"
             stroke-miterlimit="4"
             stroke-opacity="1"
             fill="#000000"
             fill-rule="nonzero"
             fill-opacity="1"
             id="path128" /><path
             d="m 651.138,1021.32 c 10.388,-5.62 20.775,-11.24 29.587,-14.51 8.813,-3.28 16.05,-4.22 19.696,-4.71 3.647,-0.5 3.703,-0.55 0.447,-1.37 -3.256,-0.822 -9.826,-2.409 -13.153,-3.257 -3.328,-0.849 -3.411,-0.96 -2.061,-3.592 1.349,-2.631 4.133,-7.781 5.429,-10.384 1.295,-2.603 1.1,-2.659 -1.42,-0.543 -2.52,2.115 -7.364,6.403 -14.937,11.998 -7.572,5.598 -17.873,12.498 -28.174,19.408"
             stroke="#000000"
             stroke-width="1.16055"
             stroke-linecap="butt"
             stroke-linejoin="miter"
             stroke-miterlimit="4"
             stroke-opacity="1"
             fill="#d21e00"
             fill-rule="nonzero"
             fill-opacity="1"
             id="path130" /></g></g></g><text
       fill="#d6d904"
       fill-opacity="1"
       font-family="Helvetica, Helvetica_MSFontService, sans-serif"
       font-style="normal"
       font-variant="normal"
       font-weight="400"
       font-stretch="normal"
       font-size="761px"
       text-anchor="start"
       direction="ltr"
       writing-mode="lr-tb"
       unicode-bidi="normal"
       text-decoration="none"
       transform="translate(990.541,1479)"
       id="text140"
       style="text-decoration:none;text-decoration-line:none">Py<tspan
   fill="#ffffff"
   fill-opacity="1"
   font-family="Helvetica, Helvetica_MSFontService, sans-serif"
   font-style="normal"
   font-variant="normal"
   font-weight="400"
   font-stretch="normal"
   font-size="761px"
   text-anchor="start"
   direction="ltr"
   writing-mode="lr-tb"
   unicode-bidi="normal"
   text-decoration="none"
   x="888.021"
   y="0"
   id="tspan138"
   style="text-decoration:none;text-decoration-line:none">Simlink</tspan></text></g></svg>
